<mxfile host="app.diagrams.net" modified="2024-05-30T16:24:42.270Z" agent="Mozilla/5.0 (Windows NT 10.0; Win64; x64) AppleWebKit/537.36 (KHTML, like Gecko) Chrome/124.0.0.0 Safari/537.36" etag="bRSDFhMPuJXc_G6IxM5h" version="24.4.6" type="github">
  <diagram name="第 1 页" id="PcElugBNnDMQZMT1YG58">
    <mxGraphModel dx="1105" dy="594" grid="1" gridSize="10" guides="1" tooltips="1" connect="1" arrows="1" fold="1" page="1" pageScale="1" pageWidth="827" pageHeight="1169" math="0" shadow="0">
      <root>
        <mxCell id="0" />
        <mxCell id="1" parent="0" />
        <mxCell id="Xi7EQyzXXoAQUirJSp25-3" value="" style="shape=image;verticalLabelPosition=bottom;labelBackgroundColor=default;verticalAlign=top;aspect=fixed;imageAspect=0;image=data:image/png,iVBORw0KGgoAAAANSUhEUgAAAK8AAADlCAYAAAAlUad/AAAgAElEQVR4Ae1995sUxdb/9294jVfRq7DkLFEQBREQMSBeMXHNOYAoGAirgCCIKJJzjoIEyVlyzpt32ZwmT3fPhuH94Xzf0z3VXV1d3dMzO7ss0Ps8+1R15Tr16TPVp06d8//A+XMocJNS4P/huEVRdP4dGtxUGEDcOuB1QHtTgZYwWge8DnBvSuAigB3wOuB1wEtYuRM63w51hQGH8zqc1+G8dfW2Of04nJ1gwOG8Dud1OC95G5zQ4Yx1hQGH8zqc1+G8dfW2Of04nJ1gwOG8Dud1OC95G5zQ4Yx1hQGH8zqc1+G8dfW2Of04nJ1gwOG8Dud1OC95G5zQ4Yx1hQGH8zqc1+G8dfW2Of04nJ1gwOG8Dud1OC95G5zQ4Yx1hQGH8zqc1+G8dfW2Of04nJ1gwOG8Dud1OC95G5zQ4Yx1hQGH8zqc1+G8dfW2Of04nJ1gwOG8Dud1OC95G5zQ4Yx1hQGH8zqc1+G8dfW2Of04nJ1gwOG8Dud1OC95G5zQ4Yx1hQGH8zqc1+G8dfW21VY/61Lclos4/XQ5dF+br/t/fVuRZZ2dmR7L/Nqay+3SrsN5I5y33YpcA9CCggjtV+bC/8zJjvrvDwqG+q2WG9u8XYBVF/N0wBsB7x1zsmEXxSn35/iiApYF9bRT5SqAzxf55fp1sYi3ax8OeEURirxBGWhJS67J4NuQ4o4ZuATIPxwpldvo/1eB3EZmeUAFdE1AdjWUCn2rB0GD6y3hvuvN1f/7r7eAJ8PPw1ZpZ0L6qckY67quA15RhPQyBbwIwEFbCuCeeTlxgxfbeHtHoVr/eL7fNqiGV46GblVP68p7RC8kXW+vgpUGLht/8HpryJPydfUHV74Lr1W+r0ura5DVVn8OeCPbhjvnGve1Px0vU0FIOKtZ+No2DbB0mVgW7unql2TO6hW8Mtj+CR21BVoWxMsqVsv1/WIAHrjeClpc7+qAN5aFuNnKzj1XbgDqxGMl8qLzgE0AinnegAAXi5U9LknHcNgBpb5dWvQI95fBOqTqAzgZOhsXcAmQN1dsg28qf5DbaBzu6IDX7iLcrOU6rMrTAfiB+TkgRDjzjiwv/Huhtp24e142jD+qgTNpkZZHABwrHZ6qHqgCFrcAMhDD2v6WANMqxD0wm98s3NkBb6yLcbOVJ6Cjw11Zyk84zqXtCk1sdu/8HBUQuW5tz0zXTS+L7WPtkHTEALz+1S/DwZAxnQUoPu+s2AufV480tLE5tE0d6822Jlbjdfa8Ec6KRKKBR8c/21cMHVdpwCV5DRbkAOY9SHFkkofhyXxfzKC5IF42gM8luiEoBmFo5beGPATtM9WDISAGAPe4LKi3SjtiHoMVYOpTngNeG+ClARlLPB7wZoSyDAD8rWKWCkC/6Nfll0suNW9lxTpdHgJ5Q2iLml+fgJeIsTjgrWfgHVU13gBABGGBVAhuwQ3dq/vp8ptWd4JSsQxKpFJdusqBw80d8CbiTanvbcTCVe2UjYfzqqCjDiJqmlbf6R7v+BzOGwPn/df8HOi8Og+6rM6DBvON0gUW0OV+o75DtIWqKVB59aP1ebPmO+ClwPvzCaOsFwE5/Uw5ZLuChp9fV0CAWWf5dR5dk2cobwckPPDVNM1OvzdjmRsC3jGVP5kubP+ql6FtuAew8sr7wy2gW3U/KJI02SpN8EkVv5m2SZezipf4BIPEIYMSd/1xphx6rs+X/yefKFP7cweMkopVl7UPKas+2bwlFav4e9c4txHNq7uo42T7utmfbwh4W4e7Q5FUrCPqpoptthctqboD+ERNDCWIAjQItzSc68ezOKMOl6oAnn9eAWDSEvMtQsNFijJPGqUf0XxZ/KqQ2VKOKR2Qbh9UDoO5lYthVcV6mFm5AD6sGgZdq/uY1tldsV9H53hoUl/r1Dl4EWj4M9iwur1K1CfCA0yJb/WTiQuNhN0bOijXT5cy1TZrQvCkxddkAF8uDgDuc9m9LO/5YkQF8o45WTUaA3kR2XkvqFhm2e760CYuDcvF+H4BakK/uqpb5+AtEotVIm+r2A1vVn+iPrMLFu0ZtxIuyQ0Nwq3kNtaGNloucCxEvW+eUVGHB1o2LREqkAsrlutoclVKleeFMltUi3wgrKhF4hEyPv8Z2iTnl0plunofVA1NGD1ioV1dla1z8NKnQOr5fRz7OQQugpuEGD8vXUrYYrn9Ary0ha8pxgIWn5suzYUrJbEdB1stctewshUYWZkszynp+iM6YLIvdsNwO7kcbiUwD7XJ8FTOqo+bPa/OwYsEe6PqA8NCzK5cBF9U8Y8/6YV6ONwOMiTjKRSW8YiJvzN2qsAHZBvBA+2dc7Jhf46m/5BIQNwXbg5J1ztA4+sdDfSiaULiCNiG1e3ksokcR31t64aAF4nRtvpx3YL0qX5R5RINOcrXeIPgz4rNcplT4jld3fuvN5fP9muTyHifzc/+c+6tJXIMeGqGkhcCTjthUvgRuCBdVmkZ/3iiyajxVwY5O/UvROP00dqMzWzADQMvqumxi3FFSlGJPq7yFzUf9VHxQ4YsRNNwJzWPtFEmaffHSLlbIURdhm8rfzTMl8ybDt+v/gISRgfvcJXeNB2l4FGQ3C0gZPIvutqAJPBfHsk/jNsm3X4s8RsG3oevKz9vNPEHhAfL+7Qz0nnAn0w6b3LF7/LEl1es1aWTMjMq5ieUMLEQsS7KotTg74qd0Lhav4X49/U2sKJiHeSI8Yvn2PFLkgdC7lYgitQeXsgByd3ZFLQsmCWvHqiSWASSu0NC1+iGgZeALlHhzMpbG7wswGr1WciXQSr6l8tgk4SzEHK3sQ1cDcgtVbCG3G2VNukXgjrdjGc+DnhrSMB4iF7f60iBzSpQRcEHIU9r9VkDpvnWgS4jeXqA6F+i1heFxP1COOB1wKtyR/JSSaJLBRsBouSyB1ZSPuRuaWgD80gfiQhvGHjxqzhRWwZsZ2lIuTFLE+W5wfO4xPIHgtD4kQlwd9JouKPhKN3/v5qNhcYdzHUv+gyczW2T7vfmjwsQcncxgA/nFfINMaRrgEWAtwTJ/xtIwTWGcpLJR2C89Lph4H3c4kh4cNU7kFw1EdaENso3AX6pmAFfV43RHUiwwOcJ5O9oNAqClDjL6wvAE89M14GVBS/9PPTbPyEQ0MQ/Pn8A7m/xw20AXhRZIYDb6QAoBSLMQMgCyfOkLk8GsO8jlTYh73O6fNGl7X/jBStb74aBFw8UWAA+F37VUtSD4rLfK+cY6j0VHqgSjUwQgYZAnDRtt5xXUuqBB1v9YBu4NIhJm48/84dcnwY0ybv1wqAOfAp3RQmEJouVKO4seb9T86TgCU7dWwi8SISO159UgfhouK960PB69fvQJvyYmody3p7hZwGtx2A9PMungc9aicEyBw6nykC7s+EoQOA2aB4fcBHELbpOguMns+DORso2IyWtUF0oejExLgVXmeahQD/knyaLoXQ/tZ6+EWG/Bgy6XUnYbtEmvw5dP564FNzHAWALkHzfyGMJeQcZ8kX/SoVjex435OF84xmHVZ0bxnlxUPlSgaq3i88HKg7rQEkDlMTfjyibkOe+VYO4RHG5fCqXjZfj0tz3zkba3hi3H2ZElWQg6gElCHkgevpwF1QHYlzg4EVD2yFPT0OaWf+JSpcCxj0rO9ZYnxM1NtLODQUvDmJ+xRIZsJ3DvaMClwC2U7VStktVH8tFpcFH4mkZRdDkkZ9UYJN0Nuz17EzYdyjFUK5dj18s+8QFlSLyUZnI/tW2QEsDQfKNVvuQhJNyfbJgdRU64KX2R1ZE/7Vypm3gEgD3pXQhzNoWBAH+1SxZB8Clq4/LwMCf/gdaGrcSSe0nyNsMbPP9L1br6t7VaJQKKm6fQpEMNMn1iFxOCiyMGbgExKL3M6UNzwsKeINp1n3bpDV33Ly6/o1xj53MgQ1t980bDyfthnNeMqEsKRt6U+aOCEh54eLQCtsLyXJUfCZ9Yti8yyQVoM9SorWCQpeaTrdB1zXEhWvagnsHGve2JvoA7CKTZ9GDbSjyVTF4TjduQ9+cxa1ZmRK1bzKGmoY1G49+K4Zt1Rvwkomhcs7cikXytR4auC3Cj8JZ6TygogopGy1MzyzmAnDkWEU77dcZ+wz5G7acldv/z1uLDXks8Hn9o04Au8hiwD4XE71fG+pje7y+ajst5OnEHYuEYq/AfhCCF0BCsZmYAWLwNOBxMjt37fkWkzbUNvGPnsjkApDmpLHGo445sA1CHj2ARd8kGXwhmRubnFR50C6vH0QhVQcAPNkSfdrl0rJVx0yBLLh8UDRtF6Q0Hg0pjUap/2ndfwbB7QPcRvHG795+npsueT/WjQWBKAQOccvS7YYCvxrqiVHVJY2clW6TF4/KeQ8e5u+1fP4gLF9zwiCCwlOrr8f8Bdt389XicBD7/1GutfAGlMi0GwJeFJd5ejGLh/f1IhKK4FmQ3JSA39MepIC2DaJlp4Rr4YEBoUvm04p2HXnGMHCtFNKf/FUFKw1cNu45nqG2RdpI7zHFkEbyyBgwFIMHlXKB/cz8Ii+k92kQg1fkMpL3Pa2Mp5tp+6SfeEJL8F5JyYcez0w3dPzdj1sA5afRuFbXp36DzGz9LeGTp7NhyAeKtlI8A46lzrGTN4Dz4hEqZ28rBv5S6RjyPEGVaaOmi0IWla5xaDGoXW9KSRoNJXMOqHVKlh62BVoaxHlDtaN07+ksub4pXYPH1DEJQgBC3tfVZ9485TT/NHl8ctzTEsSgOSMz7dfGHt4SvBu3nJMBiroApJPOvadFBS0L6m9/1Iy9Pfb0dLgzSRMFkXZrIywt88Y8Vnbs7LOdcZotquR5CUKe7pzFbwNKXntOHnI8ZasQLHbLQEttrtxrK553KGbgEhBnD1kgr2lm/+lyG94r5kZSJP8oZVxe9hdFe8GMc+4o1xGDtXf13hK8v87cKy/+/c3GyBN9qPW4uMGwbM0JuQ0ChkBA+ym0A4h4yzzUhj9mPHT4JnkzzJh/CP7edQk2b7sAU//YC0O/3WA5RzvjMC6k1SJHzyPgDeSVqWDN6P2rYW9LgGk3zOgzTW0PObDV3CT/DO6LZTVXSVDW3KrdmuRZgnfWgkPqQrbpPlmNEwDWJKwr/YDvxm01jHvc5B06hR2WgPhijRiz2VBv1z5lP8eWZ5+tFjSePAJe7Cel2VgVcASk5VvOQUqTMYZ0kk/C1KTRkPv5Sm45dg78Zw+EPIpSueU8vHgf0fwUkt92gj/YTpzOMiwgAnb8lB1wT+Mx3Dwa0E8+NxPOnM8xlMP0RE0gWjuoVXZv07HqGCb/vkfuu7DIBW0emwL3NdcOMf7dehygyqMgKIR88+MVaj2cl90XznJhOfvhaOUlQTlYwbm6dl+GVEaaUPCdYq8ie9BsLjARvJl9fwPBF4BATomhTNGvcbjB8n0JIc9z6r/kfR7EwJo6W1ekhSXnxQLLVp/QLSAuYkFhOXi8fvh85J+GPALeNRtOyxN5qO14XZlOvaZCbp5m5ysa+BKRv3v/VXUM2N6IMZvUZzJeNly8UgEMSV/15ynbCxMNjGJ5ewh5XwPJ+zpI7q5Rf45FUe9aNr3bZB0A01okg+BXOJ3vUi5k9ta2A6ktkqFs2VF17GntxuvqIrBFExFaImhfm21EBS92ThaQhIP+u0glxonT2dCghca9Rk/4W/1JzssvN9R94fWFat3anBjb9ivvKIcO+MFI5hEtbNpR0YH4eqxikYZt0+xZMjmUQMG+KChOBum6guAHMXAEeLcVJO9LBnqRbQAdli47opbTgbuJ8r2C/QUyiwzAxTZ44jN6fPU1HhW8J89mcxc7M0sRgW3ffUmXf3/zsSoReadUdzWqG0kDj+CfjVivG2s08GL+yGTlNI7Xnmka3vtitgciZRBF8k+JXGhsAyFKCUdRANd/wIkBY/80aOl4Vr/fIa3DBCNAG48GzEtt+YMxD8G7195e3nS+NsRatVE3Knjf+WxVzAseDRS1MRG7baKm2N1NtD2w2VgbtZ8AZ88rFiDttk2XkwKLVAAjJ5bEMgi5+cetCtA7gijkgygUqvVCnl4qI6DbpgGbiLgDXhuHFgQo9ELciDgek2bnlMDA1xfqXkw8ePn0q3WQlc23ARzrWKWIDq8U3AkhD1+Ga+DQeLyMXNujv7VA950IwNJtOOC9icBLA6G24yGPfUMdNJCFoPmhAQ28RMTdt+q2Ycv2izruRLhnTUIaMO7d2tEnnY5inZK5ByClRbJun3Y1aTTg8WbZevOvf9dO420Euu26jQdA8o3RtgLMXpgGLMYr0M6BUMDdLpBxRwVsy2TIHjwXcl5fwN8DU0o72BYq9JC2b6Yw6p4XJxMNqH0GzYFh32+ENz9eCf+iZKq8es++olm28acWQHqvqQbC5X2zXgdYs8XKeGwK+K7qvZx7L1yD7NeVo8/6tRA+CHlpnQb9h5msZijo9UDMxu/adZFLH/fhVBDKORYrA0HwnskGPKRgaZk14A8D/c36rW/ptsDL3kZAUOKJm5mKHU5yx57LcD8lQiNA3nPgqkos974rMjGDpZpp0vTH9DJMlti859zPtUuPGahdVUe6EzdsMQOCHohJo2SVRxyPEAhC0aTtKkhzUQmH0k1JaaIHcNmfJ9X1SNR8opma9Yo+OCWdhZOhM+o/Plv1T7txIOVsgfdaXqmO+341WtGQKi/3waIVx6DVoz/L+fc0GQOocUYA6vb4AdMIcDEkHWNYvOCgQuQkFJSLkGIiyuEBlk0rmr1PPkEi6bjtoPu61eJlq46rAC1dfRyCJR5IaTdOTSN0ICGKyQJZxfIWgaSld55YKzRCfxk8dwInxbPQu/oFyytfUytmAFp4Z9drfmipwVi2LfBiQwMGz1NBiM+zF/6jPtPgJPFu/X6H/AIXrFp/Si2H6pD0oMrXnlSJndZd4bhXmf0YIbStkPpZpLkN3eetFEfdXqRL+cbTgCdpdmhUtuG0XC61sXZ4kWiatKjuAstC+qPiz6pGWIKWvjXzQLgVrAlt0GEFLeBvZFzR2gYv2j4gegBvf7pSBSQBKy9E6zJD3l8ql/1+/FbdYJBgviv5XIIXzzsAKU2jK5pk/2cueI6lG9rIvC1MMin6F2ntjce9dkDsz7G3v44H2AhEBBup2yncyzZwaRAnVyq/DBdCijPxhSG9Hrht8OJA0BYCMbzBA6tZ2nOvah9pZEIkdG2/YABfIK9U3gIUjN9qyCMLg/WwjQzmnD/jiSkQLLg1DU0TmunCoACFE8zpROhFwtT24yFQWHv0Id6eEIQdw73g6eqX4wIuAfHGii2AVvHx+buqH9UXAmkQE3gJ0R7tZ08hHa+WHzlhvHZC2iEhfmAR4mKY/dIcdZD+tEJIbfOjml80cRuIEV3gQEG5/sOl0SjIekHzkE7ap8OnN5qLoXqvz4emSxU3VrT/ifvm50DPdbngNdFBfmmreZt037UdT8etV5J2d42maWqTMSC4OJKIWjjaZR1AIvB6hZ+3DeKG19tBg2oFsATEGK6q+FPFBdIyLvBiRZfbD//9aAX8u/WPui0EnlL1HTQbxk22p2bnPZutApMmdiBVAYRr32Vd/tVG34MYMZ537f2lujysj3tmK5CgXzU2f8KxElu+1hDQj681HhnfMUe/l2fbJ88dVvBt06aXBeGuueb+3u6YnQWZlCdO0h6GrZbz26TL1HV8Y2irAajPVA2WJQsdwj0NeTRAP6n6GtBjFOG2JK9JuBO4Ge26uMGbKILkf7vBAEAaxPHEzcYWFBT3rH3+1E6vmi/NtQ1cmht7Ilz4p2Nlcv0AZY3SrH8EuZcqV+oT4PF1ebb7f2FzPrgoZ9wYv3uevRfHbEy1lT6icqwBpKSv+RVLDXlom46Iy5ZVrDHk86yA3lbgTSkNqEA5X+SHTqvtA4cGLsbvnJMF5X4R7pyrOBs8kmd9SoVgx3pf7lc+lNDP8f02vWuyfRMQ9NtYILfpo14IknejwzerPzYAcHyFZiprS2iHmo9+NWiHOS3Dj6p5hPMeDmkK+WRutxV4aQfXDRbE5+ESgYQcVAGw1kax1/pO3sFrPrnOHXOzIa3UvltYFrj4fN98xfcbtoXP+CKSBa0vYeNwBwMAcS9cIBXCsdApQx76kDMzYYsAfqPqQ8Mcbzh43fuvJnTbEG3Pi54qWUD8meqB7muN6Wy5B+Znw8l8BYRsXjTQBATNMzz+1Mv1Z2cZxsK2yz6TF4dORx9x0fqv63zCMRMV1kvwIlGt9rX4lZz98jzI/2Ez5H25Vj6FwzSzOlkvWN+Pw33vPfP1oBl+QFGBLPIqP+00MEj8QMTL5cY0tw5wd87NAb/Nn20et0eXr93XGCUcpF8SDtiYD4ci3JukYdjW5COwrsHK9pco0JJ26i140zv8ZABjVv/plnervCcygSegdx/UdCdYgpJnevFJvJz6EHr2L2UviXmNluilE6Q8HfqD9jkfC+CxR5RrQddcQWi/0sj9u63Jg8LIluStnUW6FyealKOMmhOZOx3inHdkemBHplf935Wp6ZnQZUkct14kbhU2Crc3bA0IEOMJ4wevhZ0pQfCB6B8HIf8Y9V/0JcsG2KwmR1+NDha6dODNH6PoTghlHiiZsx/Suv0s5yPHzR+xHlx/K7a1BK/fcCxq3adCeBp4JP7uriJ5UQ7kGLcFa68qFyAnn1QkC6QOCc8W2t9zkjp0SI+5GbWteXSdJhXBDzy6DonTddn4zLMucHHAtjfbB+1WGF8U0iaGow6XAEpD2DYnnSgDO9uUV6reTSh40VEiO5boe17BDWJgh6GiJGRDyPuitZ6q5wkQ/ZzLi8FzIAh6IxfX3l2iAhgHWTxrn6wdZrY9QPtaeI3bvVuTA3tPZhrGyU4Yn+lFSkT8TIG1pIGMIcelSTvofl/cosi0h+03ypvxhcH6ZiI10jYvfHBhDqxL0d88HrRF+1Whx8CL4958yUWtvoDqsXOyZS7N649Om1A51RS8v1fMBa/oleW5KNNFy5+ojPNgdWvTOnTbJB4VvJJvpAxQUgFDyTfeGrSMwrXk6a0DVcj3OUjutro0tGKY0kIxqJH74XIVyGbgxfTUZmMh59V5ctnCCX/r2qPHy8Z5C1WTNLvgvUqJ6mrSH12XnRt5RqBhORTlkTQr7/V0m2x81D/K1uZwrvKrtOqKBmjSNi9ktwfvVCsGs7FssVgC56VLcE66CKlSuuqPpFgqAfRBQtdtHu6izoHuJyp4Q75PZaBKwb1yAwhEVvvfzrOsbI1WVIK5an16ICTOmue0Ai/Jo4+TSTtWIbs4NX2uj+DFwxAyr04rr0H3tfnqM0mPJdyQ6lHrJx81qizy6D2+cooKwmYRAB4JHYOO1XxFnQUVy2SMXRNz1XoIYjP94Ojg9b6pgM3TFggXtgNWXhnR1QFoC4m8CWNa1uA5llsGAlr8YEOtMrN2zNJjWTQ7ZS/alLOmlQVVANhp104Zszli+l0ROTDdTr+N9kGM2w48mqbrY3xLun0difbhx2Ug4nh+rJqsAyXNXUm8VbgbXJKuwIPXlS3ENxXmfu+iglfyfqNySgJIyfMshDzRLb2o5X3JxjZcaLPW/MtV8Pgh/7sNRolC0mjIeWMBFEfMNlm1YZbXaLG5aOrFzQUwbH8xLL3khmWX3TDyQAm8ubNIPZhgFxKf8SfarC86nZyy8dqIN41un43jzzvb7oC/8uF4vk/WiWDz6OeRB0uAlk2TvMZLrumOuNk+2eciqVjWU3j4eruowCUAfuh6W7ns81WvW9I1KnhRKmA0Vd9O9rclBXcZQEkAK4f+ZBAFL/fulijWnj4pS0D2+R+OvPSVbUWmWmNYPyAI8O0h4wfVF5HjXrYPs+cmS/gvDn4IzTlXLn8MnS7wwakCH/yd7oUZZ8vhfzjcj4DJrB+S/sEevXjt3nma6G/5ZSO4Wy3Lgcslyi2UaafKDeBHOTlp226IH2QEmHbDIdXGEzW2PxvgVbiKDpTorim4TZ4EGhyW3Ea7rbQojK0r+jVL4OyA6uIZF4Dmvs9vype5py8owuC/C6HFslxoOO2qvHBNl1yD5zcXqAcRPxwtldMb/3IZjrUaBymtf4TUyH9a54kQ5F2AjHBmvBw5lQOIeeddltwbOTuWIYAl4c6s6FKOZyiZNak3/qhmcooG8D3zclQjg7gODeZrx9+kLr748a7RrIqF0DTcyRLIXcN9IEPSS6LM+rMJXsqKS0SSUOFup13AFHJkh8kEpGJQu9RX4e5h4M6S94O4CWA2kVjTT1HHvPjzuD7FDURXABdq4PD98NiY4ypgMO+X46VQNGu/LUlIOTpmYbhUwQ+bARXtcS9JwPD7GUUx/HKxX9ZZIOkkbLksF3LdinHvbyjOjxyUWLO0mjvqQZC26DCjLAib0rSPMDoP5bvfH1ZeUjod4+/vrvkvZr5YAJ9WjoCPq4ar/8MrR+uUc6zmRPJsgZfHWZVtwUQQ/UsM4MQ8yf87iP453DzMJwO4keF7uwrlhX10jVG77ELSaFjQZ4668G0mnoOTLc0vOJKPSDrMelGvGI95RT9vB/rFwfl/tKdY7YcFC3kec1jhluQZ9THs0I6UT1SYCPDaGbedMrbAW2HHoDAj2yVc2Cy0M7i6KPOpCXAICJv8chkaTbsKF5oYjTqTMlYhSkRwHkW/7JQ5NtqkwGc8FkZAtVnO3wPzwNZwkVJ22ml7oirsh9dOTdIc8NYTzkteDlR4abhY+ynHxSWAvNh4DJxoqV1DIumxhOk9p0JKY0WZKG+Ydqv2t9PGD6JowJp5zmWL45K5mW0bovVjln/zgdc/xPTn34yzRksnxK1P4ZFcH3y2TxGLnWxuBKzrQIoK6mjgxePrrMjVdLps4VT99Sjcz95jsi+lAYT75AKP5tjGLt36bbAv16X7M4tvTLV3umZ3fDUpZ2vbIIpGe7NGcKL5zkdBsjTjqZg4knzW98zoCWWK1l+emVI2PFTVDmpAog0AACAASURBVB643lL9b1zV0fRUBtsuEAujcq9AoQvS2jO2biOWeIp+32PqAyKt3TgI5pXJlmtY8/vRTCt9sb8I8AhX/V9yDb7aXxR1rDS92Pgokw8vvMs3/7yRi7sDAjzIqIzSQGbbv5HPNsHL9y2GABZ9U0BEy96MoF4KbAVi4pMFuhTcbijP1ifPiytXyhf3yDOGATEA4y0UP2hZ4gZpi+ErdljV95AraRpbdNt0vITjKooWheX8d6HKiRGoBd9qhjKKp+9R8wjnJRdH6T7qIk6DD+ND92smXK+5ArAv2wt7s72yoj1KXnBMqNv8cGSPTeqjJlpdjNduH7bBK3qH6rYOkheFyBGBtZAPId8UkHzjIOSbDKKgKYNIrMTBw1eyMBvwv8Ot4c2qj1WinZHOQcOw/dMaBPKA6sFqfewH06ZXaNfrzfou+MZ4OTSrj+ZKVWcQMGkUEFOh6B8ilWM0JXf4Wt04zPpNdPqEY5rYiyivb0n3yPJsAkw6/CWiyYY6xnS6HVXIRI/dqj374BU1L+CS6xEQReV8O+TtrwO1ymU9PUEMKn5q0cI3SZeCGneyGhjJI1y0RCqBjFAW4GU9khZL2Db8mAycbyp/lOuPqfopKpDMrPZk/2cOZA2cZeCsyGFzXp0PqEhPuC0dZjyhXUDE+U2nPFmS+ZLwuVfmQ4MWP+jMCqBRFzT6guYGcq5p3JPUwXAB5TyFpCPo8OAFgYhpn+8znhTSIMU4bl3wpI2kTzzOl3DgwQ7phxfikXiRNyhzcuTm+B/tvp/f5rWmGMArQigwSwYhcl3JP1cFJAEmN/S+ApKwT6nHqEHyJsumEYAiaFlVOZJnN+xc1Vu1BzCySvEiyfZHP9PAS0ScBW/LRyfBEcYXMOvjw8wKEabf33wMFBRq+1a02nl3o9Fw4pTxO6HEG5T1M/AUjQAyWnhv5Hbza9vMjaq8+jf/++FEvh/uilxU5fWDx+EbTWTVQ3YUWb4QZI1iAq9cyTvIHmgZua/kftzWgMjASNio+hEDp70oXTGkmQG4e7ifbHaIzZ9ZYW6CivSdCMDSbdDgRaApANS0pvq9NNvAaa3AS/JORrxXXrqaL9ffudfc1y9+qPHAZJb2wW5rIKEoDjkroRme+r3NXFcyaxvT71uQDacLtG8m5NQIbDvX+WMHL36Y+RdzlHX0xpJpLiz5vlInRyZpN7wm5UHL6/p7/PdXKyd0kyqnyRIGFpj43Pp6N8iXCmRtfdb80IvVQ2yNJ6v/H9yffxqQscTTqW2D2+1TgTpr/kH4YOha9ZmA0m6Ivpwzsorhrohjx2mzrP39zjxbDo0YuTYLsF7r8+Fa5FjabK3w4qkMQMrwyQMLYns5SL9EZ2JuRIcDtxdm/ZL0+MCLRoyFAvkImAYpGxc974AYPBN1EGQwZuHPlb8bOG2ZpBmLe63qfTUfzQSNrpyg9plc+bOaR0DOs77C67tw0jZr8KKLqAF/QNZLcyDj8V+syzYaBd7zmkYXeuYk4LwrabQaJ2l2Q2L4EM1skTroS5k3HzYtxxWEkYeK4euDJep/cuRCKFuW94wmqAj4UNnnEc4FUpIfLURui5IODLGsnePvuMGrTSYIIjpIDv5D/aNDO20vppW13tyblfugeqgBgP2qNed671dq+Whac690UF481MBH+S8BLQm/qrTnCw6N/PE4a+4nK8CfYtwHCkEBPP+kGtyrkjbY+X37wxYVcAR4o8dvhV9n7DOkk3wS3tcsGYqK3dxyZWX2lcXZMcX6zAPl/TFwX7wnx1N4j/YhiONMAHjjA2QsRHrweisDABGI/cKDoHeYb2n7merB0LW6D7den2p07Gxv3Bk9pugA7DmjfQy591yGtC4TZaclmS/OhEB+5ItcEKBg7CZdPTQKyOuzP2W0G4HZpKNmrbztY1MM4EQXCyvWKVp7x05mGvL9ETeupC+8G0jivBDVNAPXSiBwrVT7z9VUJrl1vNoe9cPdRqWin0+UwdRT/JvWNNhR8R/bp9MwnrTkmi2NuZsCvIRjJiqMBbyiP6CCMOs/s2ULlYU/az4fCFelQ3+2ojaommZtMhoEE27Y89kZBgAeOJymAm7+0iNqPnoXxe0GAVT7x39R8whHziUvUOTlzH6N/2HqOZwGVxkH3PQc0FQqWlwnfdFh9ht6F7wtlun3uailR8rzPt7QsuW5QuWl+omSQSNwcdtg92aKA14bHLhgzF8ygEuXHQVZycaG64H8MZvUfXCZhdPtJhH/xgR8GHboOVV2TH7hUi7c2Ujby2Lee1+sloFBu0ug6w4fpdi8IOBBc//BYkofIRAE2syADrCceaW2SgbvOW2vjtezsA5pH0OWc+Iz6omQMp/s1bhzg4VaW5hP61CTdnAvTupahQbwXrC4TIjWUvCKyt3z9JfyGixQlEbMTmAyyu0NxmygPaqf4f78x8uJn6oaaIs49Hiuvb1Y5cDRFpzOL1mkHNTQbdFxGniJiH/5/UZ1bnjSh2NBf8Skz9RWfP/D9Jh5cW9Edlw8c5/cJn1MTkBHhw0XK3aM8WoTnY7xDiuVY2YeV8b8lTav1hvAO+F4mQxQMlkMUSRi51QGO15+2fih9sb2Qsgpj987z4gqo61XGrj4Uda3ehAMDL8BXaqfigr0S1J0k1D0/EkcLfXwFpab1mQ04E8zqWsWJgKwdBs0eAMZmpf3ot92g84bPIfLcudByiWNVrwtRazYE7cKOC8WnDV9jhu8eF369W3aqQkqbBAbtHYH9eR6bc9DJrfwghHUZgvKpl+VUrmA/LLqe0CtMrY8isKOSCfU0zQa6Bhny8fyHHT7oPCnvy1B7D6aBsj17LRbEzEZDVoSp8GL/fMAybPxxiuHaWktkg2uEzCdnptdXNgtFzd4SQcoc8PrKndz7v6TMlYhnqXjBN/YoVy1QeUQesKxxtmDistiitre5tB2aFrdSVbY6Vf1oqryiPZeh1eP0gH/g6qhar1Yx1Ab5Tv3tuffg4AzWjhlumIchow197NVBgCXzN4PRX/sNaSzAL72/nKdbzuSn951ko6GVjiIJ6/G4EUOHOtRIjvQFpRzErx1SwgaT+gTfCoIB1e/I5+cfV01Wk1juSs+oxkh7ItooaEhC9avQTxjSWSdV99VXH3xQPnae0th6ox9sGXHBdix9wosWn4Uxv+yw/ARR9elpRFknOx2IeuZiMvWoAB5X6w2gDij51TwpShucXkemdiLpey61/SZ/tgjc+CFhj0v79gw2xUE9IhjZ1BP/pkP+AHHlrVr34o3SJI2MrL3XV6xBjqFe1sCl4AZT9vQCgseEe8I7anRC0TGkcjQ5wsYxF0oPqMVbnj98aQNjR/ha8oRjkmH6MiGtJv7KcWdW+oVlug6JK7KsyOSmp7rzY33zTxTBpeKA/I3D94auVoSkI2e3DFH/9FP44WMK1poAG9GWQBYwxh3zFasL447VqYe39GdYRwvEuJ5NM8qzFs7tD10tAFFy4/XdCbrUTFaP3WZ34XaOjRqP0GV5fZ/eR482ErztoSucJMemQCuyMHDoSNpOuCXlvJP1gjo6BBl0DjHYs72ISPizDzHRMJCf6xhG3gaxuIBLe4QGqKSDd7QwH/aoczFIu14mdTHj3tSL1poAC9WGH5Ak8uRRmlbrW9s16yw3DUvG/BEhXT0Cec2rpkIjdSJNdxesdsW10Xui6dzp0KaU+ah3+h9edF9z1l4CJ5/bYHBUWLLrpNkd7UBygE1XW/sT/YtVNL1SByVdO5tMlYGIqbt3n9VB0p6W0Di/V6aAz5/UC3XZ9BsdQ1IuySkQZuIOAte7Ic2boJmVDENrUo2X8a/HY2CACyDoleCMQxjwQoXvAM3Kx9ZdKPPbtLO8jFO8vBEZH/E5D3tHYfkYzi8hvewyCLQIXoB/75qnCWIT0vnDM6WG7ZTrqLTbW3adh4ebKlxOAIQXjjhF6OtYlQap9uLJ75jz2X5pWnRZZIKSF7/dFrzSNlHek617D8RgKXb4IEXFczJTWWcP20ghcYCHe+7oUA+BiZpv57SmKAdGnLBayYaQ7PzrU3epI6rcgGNsJGB0OHAyBm2nQHVdhlc/A+GaddxXnxjvm2wEOC066HdiFiwTDm+xXFLUjRDIG4QghdAFKj/oKYBtmbDacNY7mv2rSGNjAPDxwfMsAQujosGXiLiPPBiP8R+78OURSAaB7w4sUXx5YGiqPNgscEFL6+TmqTVF/BmZBbJQED1QVSa7jdwriUwaJCw8XubKl7TiQ7tmXPZIPrwfpt2LKoSO3gCRI49N1qFVPIvAFHwQFm5F156c5E6rp+nDDSVLuBHm9qHxTF3IgBLt+E9b/QCSsaB5l5jxQpyaVI/lvC2Am9+YbkKiiadJqpxFph2n++m9HDTM4sh5O6kqIVSQJK8w+zfPHG1BjGwS15IVHfcseciiOUt4Yn+n6pjbdJ+AuTmlakfdXYWO+vZGabct3TlcfBnFUOgyAXBIjf4s0tkvWPWHzQNXjt9Prc53/TjnoAbRbF2lXB4fXLBWxOlYjIwOhy4SZEZ8gZQ12msr2QE6qr1J6F55+h7zX81TYbFK4+pQKJBLorBCEhbqVwk5DEaGaS5rVkc7b/JdAkclNsUA9Y3I6LREBVzaPBhvGiKZvxEcPshKIPXBYJL++XwX84z1Mv/WjFXFa1Pko+ehvpuzIc+G7T/wVsTgwcueN/eaZQ20GC8e14OoPd03A60X8Hf59LlY1HMyf1spbr4hAAkLJ69H7JenG0gaFr3nwFPjczsIuRRyiqoqXV35LoMAd/oCVvlPmfOP8QFJpYb89PfMrfbvf+KrgxuQQ4eSQNRKFc5rOh9Eyq8L6jPZiC1ShcCZ9T6kt/atxyhj1WY8/JclW65HysmZt0HrkJ654lqugrwxqNlRzXYHirkkHS0TWFGY6u+ayuPC95UE8cf446Vck0OIevHvc6dJrdFYxl8KiMkx7qoUpjSPFklIiEmLyziSANSm4/VvRD3N0/WARB//n0RXQT8ue49cJaan9R+POCWgMzh3iZj1DwCfrxMiflGI9wtQPL0U0FoBVYlr728TWDLiUGj310yHrshctbUlopGGdbJ/25jVHpmD1JsWxA6lyw9rNLBbr+1WY4LXuzwHuJiNALIrIhWGB5CoMl75L7IXXuszYNsV0DVfH9vlyYDxvwvI94l7U4CCUX/NKECOCGe3TCj22SVyMitsR7dPwEdHc5aoKguklu9dB4B5z/H0g3AxXJnLygfMKHAIgNQJe9QEIN7QXJ3NuTRIJUvqQpohZ65yOrpBrKvO2ofTc8lljg6XkRapLW1b6o1NVIWTbPSfQmCmz8u2S+fuWlbnJ8gb4O07YnWLuoda8r2Wjr/1ospeH0RL+UIwPd3FcknZ69tM8p/6e3ByXzlegixDYAbcmI+KNpAMN9PqfChVlZGv/hv715tNkb+iSOuXr0RgGE/NDATET9DXayUfB/qAIi228jcJf90XR4uZIW3F4jBi3IZyT/PkC9YOHAk7cYS4t07u0yAlEPzrGwfIe+zIPqG69IRlIaXj30Z1efWxo9bT3uQfMrJH9sf79kUvFj4y/3K3nfheRc0pzwz0oBl4yj2QGMVeHhxNE+768TrnE2jPWGiiXxCvLhD6poLOhwk/SUCsHQbNHhD3ucMCyj6l6t967mz4tuDjCvk7misGwE2KZOoMOf1BRDNbRgaDTTrTwFpK1W2LflHGcZuB8ii73elDwGlNS1A8n5k2ic7FkvwYuGB1GkaC1Sr511Z/HN2dgDsM9mX0YAt+/MkpHU0+iemy2A8tXkylK8/xQU93Q8NvETEafBWeNpzFrEVSKIbxOAOQx6Wx7FJvgmGPHkxfcYTQXouNY27d12C7NcXAIKZ/Od9sSoqgAgwRc+bIPlncMdOykQLRf8iQE4ul/O+ErVvMueo4MWCBznec8yAi3th/OAjHcQa+q7kA/mpJ+AkNm1Llx7hAhPLFU3bBaIggmvbBUMZX8SiDBlLIgBLt0H2vNh+tIWKNR+9jZJx16eQNw/JxezX1S0CPx0dS7LtSD7NqGK0+doCL2kEtxHshxyC+I65OYAOPlJLY9smkHbZEDkoAa7MUZuMATGgbOSFUg9kDtAM2aV3mACBPO1MnAU+1mf1T2ng8eKNHpkAX3zzJwz7biO07PJz1D0y7diEXYyaPtdX8EpCpgF4IZlrosjQuP3R0cHzKEiiS+O2FMhFwb4Z1ZjAy4Kstp5p4JJ42WJFTIOe3kkaCfFqDo7Fve+KIQ/L4IcgPVae1hYqxLgoAT1dHuOod8u79fDfj/RuuULutsZFpRZHt4g20hG8qGDOG5vXF4Btuy5ZvlyTf98N5Zx5ufFggrpGz87XzrPg/8swV1KPvw1qC1JgrrIWQpahLkowSH074U0DXgLUeEIWvH5/EGhZL9o/CAQEQJXHletPwcA3FqqAGDB4HixdfVxdaHymufVp6lo4EjzkecawKLECli4vBXbAO5+tALQoSS/ooSPpwJM502MjcTQJtZaxwfDCqwug13M1O/yQAuuMc/X/rI0THUhSLygt8kNLo3QexmOVZ9+W4EUQrN90RgXhxct5cOJ0NvyLObwgi4/hv5qNhb93XoLSMq9ar//LES5CyWBDvpGGRSGLpBz7ukAQPLJnUFFELbQCkFytzOuIIjw1cJasLpmXr9hnGz9lhzoGeozR4u9+pnyIlZd7AS9+PtTGXJpAvyhmccnzH864W4Io5AD+/IfczJ4WbTaLpSAGUzj1WgDumc364qXftuBFYjwxYLoMgg+/XCMvZrTFx/y3Plkp17mnqf7UjiYuASsJJd932qIIJSAKKSAJKSAG0QBHRCgvL3Y7/aKiLFUUoctTyiXNzr1+hSWrTsQFXDK3j75aJyvc43ODljXTQybzS2RI0zFa/LYGLxKneef4tMvIqRuPwJJvtApCyTNAAW7goHwgwVto/PnFdiQhW62H5VDZB9P7DNTs9hKrkASMdkPW8g7Wqynn5c2lpmk8epql1U/wJo3ifnjhfje12VhI6zYZ8kdvhPzRf0Fa9ymyfNdqL8xKG1hizFx4EO5tqlzDiQaG195fpoCR2iqw7eHeLuTpJgMR8/CjK9qiSu7eIKJvj8geUfYgGukDL2Oy48J9usfrB3Kbgs0nz3jnrbjEDYP+q+kIk7y0dP2HLDuPaM8h9yPqeMm4axpG65POr5fgRU19Foxo/9bK4mHQG4CspzURGqmf96V2a4KeOC8+MnkT4M1dlrs16fATfPLVelV5h1eXTROC2SDhiZGbd2hhIveMlJX1IZiXIyu72ADgnGuKOYF5S44AWo8koMQQ97RjJyrOzT1e4w3lbbuUI2l23DE9+39PKHhF9ztRGQM9vnoJXtRrQANxBICZ6IEnKIDgD0Lp8qOQ88o8NS/75bmAhxdEVS/7VS0P6/uv6K330JOPFsdbuijr/WzEevV/2LcbII+xxGjWDl4LipUTSb5vuAuIls9pcGL8jQ+1Y2eUlND5Ho8mc/90xJ+6PCw3Y55iw9hs7HbSpeBO0/lJnv+CGNgCknAKxOB5kILHQAz8BZLbxAGPvE3iKevwlXJwfPUSvDgwWQ0yYifLn14I3mMZltsDVHt077osW0QkoM95azEXCGRhyst9cOCfVEMZ1PlFS400GNg42s7dwfH9sHvfFYNMVvJPicqB5W2DaP4z/sIQ/l07lJQUl3gAL5bSY8RrSplZxUCuPtF5JE7oEH8ocNRAW8nbH6s2uQccMnjNgcprr96CFweb0edXmcPmfb4K0F4sAaVVmPPeUrlcWnO98Qze5Lv2mQZdn9L8qmGZwW8v0YGALLRZ2Os5/QXIjr1+he5PRyzSMD/9KGUQfV+C5Buq/os2vYGa9V+TdB5NYk2T/FMp7ktukfhBMhEZonNJuQ9ZEUcTpSFXjrXveg1enExG98m2QEsDGo+I7RCCWB5HGS+W59nKtQOOuxopbgLwwALL48eUnf5jKWNnHLGWiaV/q7Ihz6MygKXgNpAE7QaI1ZZJEtIg5Ivc7/P0jYteCQMvGrWzmiDmo/VG3X8UXVXSZvH8A1yPkjRgSTzvK/sfaC26KnoLeNr2/GvaqVqsIJAB+8Qv6k93q0c1ZXgrmsSS17CtflsQzxjZOrH0b10WlehbQcjTgeLC/I9SFdCofedpDaicY922+VYiYeBtXN2BO4hT0llA11PEdhgbogOUYyHFxwI7iTbVitdKkl44cRtkPz/TwInRamH+9xtlZ9WkrJ2wWz/lkIJe1JffXgL3WZy00WXx1O2Vd4yG8nr0N9k2sNuIGJ63774c03aGHicv3udFcws7dmhnKCPkQMjzhH3wokhQ5rjWTM/QD0WzhIEXXUi5KA9ALskNg6qHmIKWBXH3qqchR9Q0ilySS65rNfia5uG9NXZhG6AZ/KAAsxf9Y8ijy+K1IdSHaNh+gqEcyl9rOja2Ph4N0/3T8Uf7/g6bt12Qj7jPX8qF46eyYOuOi1zZLqmHLwPbR82fgyAGVtgCsOhH9wQ1s5ifEPB6RcX86KDqN1WCJIWNnitZwPKeyyXFCPVnVSNl8LpRD4B62xIdvxzxGkkWFcPUiPAeT9FoQ3eYh6adyOna1dQCA6BYRZ1EjhePpOlxYpzoO5j1U1jEd3dlZnfNrJ2Y04UCED2PAV6DUv89T4CI6Qlaz4SA90zonMphd4X2Q8Nwe/WZB1DLtHALuCxdlU2SYrnDoZrfnLUi1q59+qvsCIj7W2iSivMXc3WAQTEaaQ/LsWBCmTDJT3S4Ycs5tT88hChEWwtBAX6auktNp8fz4+QdgGqTI4RkoA2kjBizSR0jmn3tW/WSYb36V71saRJ2TCXfnGqi52zVXkLAix0YABlubky7bp2G+1+2HavBJyIvqYPxZx8BgAuPhp1pMJD4lOl7YPyUndw8LJOIcZm18czLikrm16M3wTnmxSLjY8MGZ56AeUsOy+MlL+Zfoa3QIGx0sMjSH/19bAopJ3X0mND6Jv18I+IJA2+XsNGRya7QPnir+lMDIFkCvVA9BFJCaYZyba53r3UCsQudiOfaXki004sfi3Y/LO9I+h7ubjJKtnmGY3uv6nMDrdk1YZ9foraEkysUd7q1Pc9o7ScMvNhRi7DewfU7VZ/J4MN97LPVrxgI1jP8HGRFHKJ8xZjovz9cM8cn0SZO8hMBVrYN0nZthfhB2HOA0fkgOw76+c5OX8vW1p+qftGwDixQzZ4fr1JUNB8Ot5PbSJcUo+O1Nc9o7SYUvLxJu6mrHd2r+6uEa17dRcdVeXV9YuK/2lmCPP7MH6Y///TixxJn+6iNZ/xo3Lz9gq2x3zXvObivqoWpO1se7c3S6K1GlqR3CFgb87Rqs9bB27m6twzSMVU/qcAlhPm46is5D92pkjQ6zBMT92VqRoQjxzOiAuDhtuOgcYefZP3XaCCeNqtmRvHMxmmVjrc7ujz1GzTrPEn9b9NtClxNVUzk0zQl8bkVS+Gh6225dCdlMHzoejtYXrHWUA5Fo1Zjqou8WgcvTYhY43UBXlQr5AESFV3+mHtQvbtGFgNvCs9dfFg9TWProviMlK0v4e7QPoNPuvWhTYAnmCMrkw3AJOv0dZVyzD43tFhXBrd0+0I110qrKX1ue/AiAckXPAEi7b834//s7qJoCdNGTdgKuXnKPTKs903yZh3wW1M20mq6MImu34iRuz/8v2itRzl6vShdhjbhHipAMY7iSsxHgD/0v0YOTereyNAB7/85OszOKVFB2Kj9ePkWMR5UIBgJoOkQFW9QvxZlrEnUCdv+Q0b1yhu5uKRv/HYg3JQO94QOqADGbQDJeyCsbQl2h/ar6SQfQ9L2jQzrNXhLJc2YSG0T6aPha2WgTpq2Gz4evo4LWhrAGH/ns1WyUz+MP/b09HqxoDw6FYpFXADSYIw1zuunrtMSCt6u4T5cIqEDv6UVq+Fk6AykSRnyP7qX2hT6G3gHE4SQdU2Mrn3jc6XasSdfBTJYYnG0HQjCtQ+WQc6Qhep/9luLwcfYgWBpgFbO2bRozw54bZxH7wztNYB3boX1bQYk/AHpcFz1oi1aPPkTf91l6sCE5bx4123EWO2ole4v6PFD8cx9BqAFrpVCWocJBs04otKJITqrlm2vMTT3Xc4D957YFWoc8DKEpBeKjncKP6kCMblqorx4yHGbhjup6YSzNgl3hLOhC3KZxRUr1fyHr7eTPxTodu3GJTHNABi1rnAaJP9CkDxtGM2ndiAFVoMoKNsUvOz49Zi/LLcOn369Hi5dNfetUPTHHhmgat//d7JVNGm7JWhpAGM8tdUP8rUm0kbB9xshtZmmd0HSo4Xob5nQPFFhtD7rIj+h2wYcMJ664DYBiYTPXzJe13nE+7BKMVJM8lZWKHYM4iGA5EsGMaA/i0cLNZLnLQawfGVpyTsCRFGxcolmoVAOfOjA23Dwn22y74nDxzLATV1uNBtj4YStMlBL5ysW17M4esgsWHnPqUmjZU896OiE5Jv1aZVOaGsWtrneDT6s/BLerxwKjauNjIatZ9VXXeUlHLw48NUV62Xwtgk/ZvuNbxbuIpf9LaT4QYiXAGhiSHL30bivfyOEDJyWD1yi5S+59ToVmI5WzWMZU8GI9QrYGo+GvK/XqcAjAIwpbJEM6V0mqW3EMg5S9o/KuYa1aBhuB8iVSRk2xLxGHA3BbytrZmmH7Sfe51oBLw4GNZHYtzXa84yK+aaEtDtBAkAhmCVfuTbYy6IMv5Gy3NDTWhmL52WZY6MVHLtjwHLFMxVfGDRI0fNO+mP27+SVrTmhApa0c5VS14xlPC7RDQ/+byt1TTpVPynPxy8G4EDoMLxc+baa91HlcPgndFTeuqGcl94K4hqmhTJiokUs44ylbK2BFweBhGlSpXDUaMBFX8KxDNysLBeIdgFLrNWoRpI1A3iiN0ZuI4gGN1GyKyg0l3op1wBKAk4MutXk+AAABTNJREFUcz9fBYIvAGkdjNbg/Wnxn+BNqJyqAjQzlC07FH/Y4og4KdwBzkuXAA8xyPp9HNnimdG/LtNrFbz0RGZVzIcnws/CE+EB6v+wyu8TAli6n5D3XcPeVgpuBNHztiHdCPSWskMPydPbUFa9sm3zw5WMiQYlxot+UzxcYn7OawuA9jSJrgtIPSEQNAC8wESyQerYCVtc7ywDcWLFNBWQBJi8EL9fvqtUHJQ3rH5EHZ+dvmq7TJ2Bt7YnorXvAsk7RAc+9YZq8ICp1W7J+18Q8Q6e7AxQsyeAAJcC0cV9Wv/abddAbpkBgKlNxwJaBMLyvtQCSGk8Ri1TPEdT6sn5j+b0j7wAmf0jzkdifIHoseHtbZ7khwdcNo1upz7Eb0HwiqA3hKF8nAmyOVEFWJKfviSILpU053joSonlyGKcqpms6SkCwmvvLAH0a0ae6TD/q3VQ8MNmbh6WSxRoPqwaCvfZvO3ycdWXCes3UePHdm5J8IZ8nxoAGPI+rS1Aud6+gOQnH4ouYz10eucapNWNgetlPRO/Hzka0HQ8kYuPH2NDqj+EthypUKtwNxhUNSSueSdyjFZt3ZrgjfEDjeW0hmfv83EtYn0HrxUwboY8B7x2gB4neNEQCs01ExG/GUBVV2N0wFuL4EVxVzTApneaCGh7GK3+RDMmeO29pXH9AtQVmOq6n1sTvN7XuXtXw3bADnDR9Kb7ubhBYwbe4hl7QfQbLcZ4T2bJnih59UqXHYl7HHUNrLro75YEL98HGH0k3AZC/mEQCowFyfNqVKCLgmLFJ54FKf5dUdAhYMx+Y4F8AIFtBQrLZQ/3195dCrmfrADvecV7POax1uHR2HY8/d/KdW5J8KK81shlW4MUWGQJAMndl1MvNvdKLFjQmjsBLvrTIDJeM1/KqS2ToSSizJPxpGKfGOuXr+MbI2T7u52eb1HwioBeeGgAqzaygkdA8k2EkKu1nF/h7gVSYJXsTlReeP9SfT1/zQ8Gyv8+B6gdlt5jCpQuO6qCmYCaFyJwvWey5LJpXRTV0tsJmHbmesuCFy0QEvCKvtmy1/WQ9zU1jeTRoeifJXPmkKdHpFwnEBOkc1HwwyZboGWBjIC3s5C3Y5lbGLwioE4DglPyfgpSNGfOkY83yYMfe+j4uSVIYmItwrh3XoSUZtpxMAtU9rlg1EYHuBaHQrc0eJEb8Y6KaW5rFpfdjFoQLl5Oh0rlZWuNqo40cHNenQ/eC9rHW7x93er1bnnwygAWSkFyd7XcMqgg9vQEQfDWOsdDc02BnBIIZBWr//6sYkCv9rc66BI1v9sCvIRYuI2QvO+BxDp0drcFyfsxiILD7QitbobwtgLvzbAgzhg1ldJotHDAWwv72mhEd/LtA9SKVg54HfDetHtsB7wOeB3wWrF3Jy8xP5MOHfV0dDivw3kdzutwBT1XcOhR+/RwOK/DeR3O63Ca2uc0Do31NHY4r8N5Hc7rcAU9V3DoUfv0cDivw3kdzutwmtrnNA6N9TR2OK/DeR3O63AFPVdw6FH79HA4r8N5Hc7rcJra5zQOjfU0djivw3kdzutwBT1XcOhR+/RwOK/DeR3O63Ca2uc0Do31NHY4r8N5Hc7rcAU9V3DoUfv0cDivw3kdzutwmtrnNA6N9TR2OK/DeR3O63AFPVdw6FH79HA4r8N5Hc7rcJra5zQOjfU0djivw3kdzutwBT1XcOhR+/RwOK/DeR3O63Ca2uc0Do31NHY4r8N5Hc7rcAU9V3DoUfv0UDkvRpw/hwI3GwX+P1VqHix9vJtJAAAAAElFTkSuQmCC;" vertex="1" parent="1">
          <mxGeometry x="50" y="450" width="175" height="229" as="geometry" />
        </mxCell>
      </root>
    </mxGraphModel>
  </diagram>
</mxfile>
